<?xml version="1.0" standalone="no"?><!DOCTYPE svg PUBLIC "-//W3C//DTD SVG 1.1//EN" "http://www.w3.org/Graphics/SVG/1.1/DTD/svg11.dtd"><svg t="1715262285362" class="icon" viewBox="0 0 1024 1024" version="1.1" xmlns="http://www.w3.org/2000/svg" p-id="1466" xmlns:xlink="http://www.w3.org/1999/xlink" width="200" height="200"><path d="M0 0h1024v1024H0z" fill="#1296db" fill-opacity="0" p-id="1467"></path><path d="M305.728 578.176L204.224 508.8l101.504-69.312v37.312h412.544v-37.312l101.504 69.312-101.504 69.312V540.8H305.728v37.312z" fill="#1296db" p-id="1468"></path><path d="M984.64 645.888v47.296H693.12v282.688h-47.232V693.12H377.984v282.752H330.88V693.12H39.296v-47.232h945.28zM378.112 39.36v291.392h267.712V39.36h47.36v291.392l291.456 0.064v47.296H39.36v-47.296h291.392L330.88 39.296h47.296z" fill="#1296db" p-id="1469"></path><path d="M1024 0v1024H0V0h1024z m-64 64H64v896h896V64z" fill="#1296db" p-id="1470"></path></svg>